<?xml version="1.0" encoding="utf-8"?>
<!-- Generator: Adobe Illustrator 25.0.0, SVG Export Plug-In . SVG Version: 6.00 Build 0)  -->
<svg version="1.1" id="Layer_1" xmlns="http://www.w3.org/2000/svg" xmlns:xlink="http://www.w3.org/1999/xlink" x="0px" y="0px"
	 viewBox="0 0 2500 2500" style="enable-background:new 0 0 2500 2500;" xml:space="preserve">
<style type="text/css">
	.st0{fill:#A8D3ED;}
	.st1{fill:#18679C;}
	.st2{fill:#A8D4EF;}
</style>
<g>
	<g>
		<path class="st0" d="M1250,2499.77c-412.84,0-825.68-0.04-1238.52,0.23C2.11,2500.01,0,2497.89,0,2488.52
			C0.25,1662.84,0.25,837.16,0,11.48C0,2.11,2.11,0,11.48,0c825.68,0.25,1651.36,0.25,2477.04,0c9.37,0,11.48,2.11,11.48,11.48
			c-0.25,825.68-0.25,1651.36,0,2477.04c0,9.37-2.11,11.49-11.48,11.48C2075.68,2499.73,1662.84,2499.77,1250,2499.77z"/>
		<path class="st1" d="M1172.12,1725.59c-48.32,0-96.65,0.31-144.96-0.25c-10.17-0.12-14.56,2.42-16.22,12.93
			c-11.61,73.51-23.77,146.94-35.79,220.39c-10.34,63.19-20.87,126.35-30.92,189.58c-1.38,8.72-4.63,11.29-13.55,11.26
			c-98.73-0.35-197.45-0.29-296.18-0.11c-8.47,0.01-12.36-0.18-10.48-11.39c23.01-136.94,45.25-274.01,68.02-410.99
			c1.76-10.59-2.51-11.6-11.22-11.56c-71.65,0.25-143.3,0.15-214.95,0.13c-14.96,0-14.83-0.14-12.38-14.54
			c16.45-96.73,32.92-193.45,49-290.24c1.82-10.95,4.73-15.83,17.67-15.67c69.97,0.85,139.97,0.1,209.95,0.69
			c12.34,0.1,16.7-3.01,18.72-15.83c14.83-94.46,30.5-188.8,46.44-283.08c1.9-11.22-0.32-14.03-11.83-13.95
			c-71.23,0.52-142.47,0.1-213.7,0.43c-10.47,0.05-15.06-0.43-12.7-13.79c17.4-98.67,33.94-197.5,50.26-296.35
			c1.52-9.2,6.52-8.87,13.03-8.86c71.23,0.06,142.47-0.38,213.7,0.41c13.22,0.15,16.61-4.8,18.47-16.36
			c21.6-134.23,43.71-268.37,65.31-402.6c1.8-11.18,5.04-15.56,17.72-15.47c97.47,0.69,194.95,0.48,292.43,0.22
			c9.72-0.03,12.5,1.44,10.66,12.42c-22.93,136.96-45.17,274.04-67.76,411.06c-1.21,7.36-0.17,10.53,8.3,10.51
			c99.98-0.22,199.95-0.19,299.93-0.03c7.13,0.01,9.98-2.09,11.19-9.59c14.61-90.71,29.67-181.35,44.55-272.02
			c7.74-47.19,15.44-94.38,22.88-141.61c1.27-8.07,4.66-10.78,13.05-10.75c99.14,0.29,198.29,0.29,297.43,0.01
			c8.73-0.02,11.32,1.56,9.74,10.93c-12.49,74.21-24.4,148.52-36.58,222.79c-10.29,62.77-20.59,125.54-31.18,188.26
			c-1.61,9.55,1.23,12.13,10.84,12.09c72.07-0.36,144.13,0.06,216.2-0.45c11.95-0.08,13.36,3.28,11.45,14.31
			c-16.63,95.85-32.81,191.78-48.58,287.77c-2.05,12.48-5.53,17.61-19.87,17.41c-70.39-0.99-140.8-0.27-211.19-0.65
			c-9.74-0.05-13.36,2.47-14.97,12.63c-15.2,95.67-30.78,191.29-47.09,286.78c-2.13,12.49,1.74,13.36,12.08,13.3
			c71.23-0.36,142.47,0.07,213.7-0.45c11.49-0.08,14.48,2.24,12.4,14.1c-14.99,85.59-29.31,171.29-43.84,256.96
			c-2.09,12.3-4.96,24.53-6.04,36.92c-0.91,10.46-5.74,12.58-15.33,12.53c-71.23-0.35-142.47,0.08-213.7-0.47
			c-11.21-0.09-14.66,3.4-16.37,14.2c-14.94,94.04-30.5,187.97-45.92,281.93c-6.94,42.26-14.25,84.46-20.73,126.78
			c-1.26,8.21-3.62,11.24-12.26,11.22c-99.56-0.27-199.12-0.26-298.68-0.02c-8.71,0.02-10.65-2.82-9.28-11.01
			c15.4-92.27,30.62-184.57,45.78-276.88c7.35-44.72,14.08-89.55,22.04-134.16c1.81-10.14-0.35-12.04-9.92-11.97
			C1271.27,1725.79,1221.69,1725.59,1172.12,1725.59z"/>
		<path class="st2" d="M1225.29,1405.52c-48.74,0-97.48-0.38-146.21,0.29c-11.03,0.15-13.15-2.87-11.42-13.12
			c12.25-72.57,24.09-145.2,36.03-217.82c3.91-23.79,8.01-47.56,11.46-71.42c1.11-7.7,4.06-10.4,12.03-10.38
			c99.14,0.25,198.29,0.27,297.43-0.01c9.21-0.03,11.49,2.94,10.05,11.59c-12.91,77.51-25.62,155.06-38.36,232.6
			c-3.1,18.88-6.39,37.73-9.01,56.67c-1.15,8.32-3.93,11.94-13.3,11.85C1324.44,1405.25,1274.86,1405.51,1225.29,1405.52z"/>
	</g>
</g>
</svg>
